{
  "accessors": [
    {
      "bufferView": 2,
      "componentType": 5126,
      "count": 12242,
      "max": [
        0.38054800033569336,
        0.9122250080108643,
        0.9360920190811157
      ],
      "min": [
        -0.3805350065231323,
        -0.9147059917449951,
        -0.9485459923744202
      ],
      "type": "VEC3"
    },
    {
      "bufferView": 2,
      "byteOffset": 146904,
      "componentType": 5126,
      "count": 12242,
      "max": [
        0.9999984502792358,
        1.0,
        0.9999500513076782
      ],
      "min": [
        -0.9999984502792358,
        -0.9999984502792358,
        -0.9999622106552124
      ],
      "type": "VEC3"
    },
    {
      "bufferView": 3,
      "componentType": 5126,
      "count": 12242,
      "max": [
        1.0,
        0.9995842576026917,
        0.9973352551460266,
        1.0
      ],
      "min": [
        -0.9999991655349731,
        -0.9991052746772766,
        -0.9998417496681213,
        1.0
      ],
      "type": "VEC4"
    },
    {
      "bufferView": 1,
      "componentType": 5126,
      "count": 12242,
      "max": [
        1.0,
        1.0
      ],
      "min": [
        0.0,
        0.0
      ],
      "type": "VEC2"
    },
    {
      "bufferView": 0,
      "componentType": 5125,
      "count": 60330,
      "type": "SCALAR"
    }
  ],
  "asset": {
    "extras": {
      "author": "Abdur Razzak Sawon (https://sketchfab.com/md.abdur.razzak.sawon)",
      "license": "CC-BY-4.0 (http://creativecommons.org/licenses/by/4.0/)",
      "source": "https://sketchfab.com/3d-models/rocking-unicorn-toy-playful-and-cute-e3286e8dd2e34560ae1d4966787e1b67",
      "title": "Rocking unicorn toy, playful and cute."
    },
    "generator": "Sketchfab-16.16.0",
    "version": "2.0"
  },
  "bufferViews": [
    {
      "buffer": 0,
      "byteLength": 241320,
      "name": "floatBufferViews",
      "target": 34963
    },
    {
      "buffer": 0,
      "byteLength": 97936,
      "byteOffset": 241320,
      "byteStride": 8,
      "name": "floatBufferViews",
      "target": 34962
    },
    {
      "buffer": 0,
      "byteLength": 293808,
      "byteOffset": 339256,
      "byteStride": 12,
      "name": "floatBufferViews",
      "target": 34962
    },
    {
      "buffer": 0,
      "byteLength": 195872,
      "byteOffset": 633064,
      "byteStride": 16,
      "name": "floatBufferViews",
      "target": 34962
    }
  ],
  "buffers": [
    {
      "byteLength": 828936,
      "uri": "scene.bin"
    }
  ],
  "images": [
    {
      "uri": "textures/place_holder_baseColor.png"
    },
    {
      "uri": "textures/place_holder_metallicRoughness.png"
    },
    {
      "uri": "textures/place_holder_normal.png"
    }
  ],
  "materials": [
    {
      "doubleSided": true,
      "name": "place_holder",
      "normalTexture": {
        "index": 2
      },
      "pbrMetallicRoughness": {
        "baseColorTexture": {
          "index": 0
        },
        "metallicRoughnessTexture": {
          "index": 1
        }
      }
    }
  ],
  "meshes": [
    {
      "name": "Object_0",
      "primitives": [
        {
          "attributes": {
            "NORMAL": 1,
            "POSITION": 0,
            "TANGENT": 2,
            "TEXCOORD_0": 3
          },
          "indices": 4,
          "material": 0,
          "mode": 4
        }
      ]
    }
  ],
  "nodes": [
    {
      "children": [
        1
      ],
      "matrix": [
        1.0,
        0.0,
        0.0,
        0.0,
        0.0,
        2.220446049250313e-16,
        -1.0,
        0.0,
        0.0,
        1.0,
        2.220446049250313e-16,
        0.0,
        0.0,
        0.0,
        0.0,
        1.0
      ],
      "name": "Sketchfab_model"
    },
    {
      "children": [
        2
      ],
      "name": "base.obj.cleaner.materialmerger.gles"
    },
    {
      "mesh": 0,
      "name": "Object_2"
    }
  ],
  "samplers": [
    {
      "magFilter": 9729,
      "minFilter": 9987,
      "wrapS": 10497,
      "wrapT": 10497
    }
  ],
  "scene": 0,
  "scenes": [
    {
      "name": "Sketchfab_Scene",
      "nodes": [
        0
      ]
    }
  ],
  "textures": [
    {
      "sampler": 0,
      "source": 0
    },
    {
      "sampler": 0,
      "source": 1
    },
    {
      "sampler": 0,
      "source": 2
    }
  ]
}
