{
  "accessors": [
    {
      "bufferView": 2,
      "componentType": 5126,
      "count": 3084,
      "max": [
        2.46014142036438,
        2.300384998321533,
        3.6027441024780273
      ],
      "min": [
        -2.3572022914886475,
        -2.300384998321533,
        -2.533992290496826
      ],
      "type": "VEC3"
    },
    {
      "bufferView": 2,
      "byteOffset": 37008,
      "componentType": 5126,
      "count": 3084,
      "max": [
        1.0,
        0.9999909996986389,
        1.0
      ],
      "min": [
        -1.0,
        -0.9999909996986389,
        -1.0
      ],
      "type": "VEC3"
    },
    {
      "bufferView": 1,
      "componentType": 5126,
      "count": 3084,
      "max": [
        0.8750001192092896,
        0.6250001192092896
      ],
      "min": [
        0.0,
        0.0
      ],
      "type": "VEC2"
    },
    {
      "bufferView": 0,
      "componentType": 5125,
      "count": 16392,
      "type": "SCALAR"
    },
    {
      "bufferView": 2,
      "byteOffset": 74016,
      "componentType": 5126,
      "count": 1390,
      "max": [
        1.6024284362792969,
        1.5815925598144531,
        0.5491475462913513
      ],
      "min": [
        -1.8301060199737549,
        -1.5815925598144531,
        -2.254762649536133
      ],
      "type": "VEC3"
    },
    {
      "bufferView": 2,
      "byteOffset": 90696,
      "componentType": 5126,
      "count": 1390,
      "max": [
        0.9903236627578735,
        0.9993563294410706,
        0.46900585293769836
      ],
      "min": [
        -1.0,
        -0.9993563294410706,
        -1.0
      ],
      "type": "VEC3"
    },
    {
      "bufferView": 1,
      "byteOffset": 24672,
      "componentType": 5126,
      "count": 1390,
      "max": [
        0.579035222530365,
        0.6250000596046448
      ],
      "min": [
        0.0,
        0.0
      ],
      "type": "VEC2"
    },
    {
      "bufferView": 0,
      "byteOffset": 65568,
      "componentType": 5125,
      "count": 7368,
      "type": "SCALAR"
    },
    {
      "bufferView": 2,
      "byteOffset": 107376,
      "componentType": 5126,
      "count": 1303,
      "max": [
        2.4790711402893066,
        1.0235644578933716,
        3.018394947052002
      ],
      "min": [
        0.8301342725753784,
        -1.0235644578933716,
        -0.10353192687034607
      ],
      "type": "VEC3"
    },
    {
      "bufferView": 2,
      "byteOffset": 123012,
      "componentType": 5126,
      "count": 1303,
      "max": [
        0.9999969601631165,
        0.9948067665100098,
        0.9142153859138489
      ],
      "min": [
        -0.976260781288147,
        -0.994806706905365,
        -0.8795343041419983
      ],
      "type": "VEC3"
    },
    {
      "bufferView": 1,
      "byteOffset": 35792,
      "componentType": 5126,
      "count": 1303,
      "max": [
        1.0000001192092896,
        1.000000238418579
      ],
      "min": [
        0.0,
        0.0
      ],
      "type": "VEC2"
    },
    {
      "bufferView": 0,
      "byteOffset": 95040,
      "componentType": 5125,
      "count": 7008,
      "type": "SCALAR"
    },
    {
      "bufferView": 2,
      "byteOffset": 138648,
      "componentType": 5126,
      "count": 924,
      "max": [
        2.4503796100616455,
        0.9757205843925476,
        2.9283058643341064
      ],
      "min": [
        0.9519269466400146,
        -0.9757205843925476,
        2.058199167251587
      ],
      "type": "VEC3"
    },
    {
      "bufferView": 2,
      "byteOffset": 149736,
      "componentType": 5126,
      "count": 924,
      "max": [
        0.8694591522216797,
        0.9857226014137268,
        0.8779525756835938
      ],
      "min": [
        -0.9821338057518005,
        -0.9857224225997925,
        -0.7765418887138367
      ],
      "type": "VEC3"
    },
    {
      "bufferView": 1,
      "byteOffset": 46216,
      "componentType": 5126,
      "count": 924,
      "max": [
        0.0,
        0.0
      ],
      "min": [
        0.0,
        0.0
      ],
      "type": "VEC2"
    },
    {
      "bufferView": 0,
      "byteOffset": 123072,
      "componentType": 5125,
      "count": 5520,
      "type": "SCALAR"
    }
  ],
  "asset": {
    "extras": {
      "author": "cosminbora00 (https://sketchfab.com/cosminbora00)",
      "license": "CC-BY-4.0 (http://creativecommons.org/licenses/by/4.0/)",
      "source": "https://sketchfab.com/3d-models/spider-plushie-d36cd523539b4256b7bc11c7cebe563a",
      "title": "Spider-plushie"
    },
    "generator": "Sketchfab-15.28.0",
    "version": "2.0"
  },
  "bufferViews": [
    {
      "buffer": 0,
      "byteLength": 145152,
      "name": "floatBufferViews",
      "target": 34963
    },
    {
      "buffer": 0,
      "byteLength": 53608,
      "byteOffset": 145152,
      "byteStride": 8,
      "name": "floatBufferViews",
      "target": 34962
    },
    {
      "buffer": 0,
      "byteLength": 160824,
      "byteOffset": 198760,
      "byteStride": 12,
      "name": "floatBufferViews",
      "target": 34962
    }
  ],
  "buffers": [
    {
      "byteLength": 359584,
      "uri": "ene.bin"
    }
  ],
  "materials": [
    {
      "doubleSided": true,
      "name": "Material.003",
      "pbrMetallicRoughness": {
        "baseColorFactor": [
          0.8,
          0.0318946,
          0.0285715,
          1.0
        ],
        "metallicFactor": 0.0
      }
    },
    {
      "doubleSided": true,
      "name": "Material.004",
      "pbrMetallicRoughness": {
        "baseColorFactor": [
          0.0753809,
          0.233236,
          0.8,
          1.0
        ],
        "metallicFactor": 0.0,
        "roughnessFactor": 0.9771052429487925
      }
    },
    {
      "doubleSided": true,
      "name": "Material.001",
      "pbrMetallicRoughness": {
        "baseColorFactor": [
          0.0,
          0.0,
          0.0,
          1.0
        ],
        "metallicFactor": 0.0
      }
    },
    {
      "doubleSided": true,
      "name": "Material.002",
      "pbrMetallicRoughness": {
        "baseColorFactor": [
          0.415238,
          0.592578,
          0.575762,
          1.0
        ],
        "metallicFactor": 0.0,
        "roughnessFactor": 0.9279619782024253
      }
    }
  ],
  "meshes": [
    {
      "name": "Cube.001_Material.003_0",
      "primitives": [
        {
          "attributes": {
            "NORMAL": 1,
            "POSITION": 0,
            "TEXCOORD_0": 2
          },
          "indices": 3,
          "material": 0,
          "mode": 4
        }
      ]
    },
    {
      "name": "Cube.001_Material.004_0",
      "primitives": [
        {
          "attributes": {
            "NORMAL": 5,
            "POSITION": 4,
            "TEXCOORD_0": 6
          },
          "indices": 7,
          "material": 1,
          "mode": 4
        }
      ]
    },
    {
      "name": "Cube.001_Material.001_0",
      "primitives": [
        {
          "attributes": {
            "NORMAL": 9,
            "POSITION": 8,
            "TEXCOORD_0": 10
          },
          "indices": 11,
          "material": 2,
          "mode": 4
        }
      ]
    },
    {
      "name": "Cube.001_Material.002_0",
      "primitives": [
        {
          "attributes": {
            "NORMAL": 13,
            "POSITION": 12,
            "TEXCOORD_0": 14
          },
          "indices": 15,
          "material": 3,
          "mode": 4
        }
      ]
    }
  ],
  "nodes": [
    {
      "children": [
        1
      ],
      "matrix": [
        -1.3322676295501878e-15,
        -1.5543122344752192e-15,
        1.0,
        0.0,
        1.0,
        -1.3934999589445568e-15,
        1.3322676295501875e-15,
        0.0,
        1.3934999589445564e-15,
        1.0,
        1.5543122344752192e-15,
        0.0,
        0.0,
        0.0,
        0.0,
        1.0
      ],
      "name": "Sketchfab_model"
    },
    {
      "children": [
        2
      ],
      "matrix": [
        0.009999999776482582,
        0.0,
        0.0,
        0.0,
        0.0,
        0.0,
        0.009999999776482582,
        0.0,
        0.0,
        -0.009999999776482582,
        0.0,
        0.0,
        0.0,
        0.0,
        0.0,
        1.0
      ],
      "name": "924d04435fcf45c3a4403c956d62b751.fbx"
    },
    {
      "children": [
        3,
        5
      ],
      "name": "RootNode"
    },
    {
      "children": [
        4
      ],
      "matrix": [
        -65.1558127516791,
        -44.52713915455176,
        -61.417049289096546,
        0.0,
        -32.401349332924404,
        89.53957282709818,
        -30.5420854760369,
        0.0,
        68.59207001076241,
        8.666908837178815e-06,
        -72.76761921184274,
        0.0,
        735.88916015625,
        495.8309326171875,
        692.5791015625,
        1.0
      ],
      "name": "Camera"
    },
    {
      "name": "Object_4"
    },
    {
      "children": [
        6,
        7,
        8,
        9
      ],
      "matrix": [
        34.853492736816406,
        0.0,
        0.0,
        0.0,
        0.0,
        -1.18340272965018e-05,
        -72.63674163818263,
        0.0,
        0.0,
        76.96557617187398,
        -1.2539283959705626e-05,
        0.0,
        0.0,
        0.0,
        0.0,
        1.0
      ],
      "name": "Cube.001"
    },
    {
      "mesh": 0,
      "name": "Cube.001_Material.003_0"
    },
    {
      "mesh": 1,
      "name": "Cube.001_Material.004_0"
    },
    {
      "mesh": 2,
      "name": "Cube.001_Material.001_0"
    },
    {
      "mesh": 3,
      "name": "Cube.001_Material.002_0"
    }
  ],
  "scene": 0,
  "scenes": [
    {
      "name": "Sketchfab_Scene",
      "nodes": [
        0
      ]
    }
  ]
}
